<mxfile host="app.diagrams.net" modified="2022-12-07T06:50:04.374Z" agent="5.0 (Macintosh; Intel Mac OS X 10_15_7) AppleWebKit/537.36 (KHTML, like Gecko) Chrome/108.0.0.0 Safari/537.36" etag="MFmmF-0Fx96Ub7hI9IG5" version="20.6.0" type="github">
  <diagram id="prtHgNgQTEPvFCAcTncT" name="Page-1">
    <mxGraphModel dx="946" dy="614" grid="1" gridSize="10" guides="1" tooltips="1" connect="1" arrows="1" fold="1" page="1" pageScale="1" pageWidth="827" pageHeight="1169" math="0" shadow="0">
      <root>
        <mxCell id="0" />
        <mxCell id="1" parent="0" />
        <mxCell id="D_gutGCtXmGGeaFuFnzM-116" value="" style="group" vertex="1" connectable="0" parent="1">
          <mxGeometry x="90" y="180" width="700" height="280" as="geometry" />
        </mxCell>
        <mxCell id="D_gutGCtXmGGeaFuFnzM-1" value="" style="rounded=0;whiteSpace=wrap;html=1;" vertex="1" parent="D_gutGCtXmGGeaFuFnzM-116">
          <mxGeometry width="700" height="280" as="geometry" />
        </mxCell>
        <mxCell id="D_gutGCtXmGGeaFuFnzM-54" value="" style="group" vertex="1" connectable="0" parent="D_gutGCtXmGGeaFuFnzM-116">
          <mxGeometry x="20" y="20" width="170" height="240" as="geometry" />
        </mxCell>
        <mxCell id="D_gutGCtXmGGeaFuFnzM-18" value="" style="group" vertex="1" connectable="0" parent="D_gutGCtXmGGeaFuFnzM-54">
          <mxGeometry width="170" height="40" as="geometry" />
        </mxCell>
        <mxCell id="D_gutGCtXmGGeaFuFnzM-2" value="" style="rounded=1;whiteSpace=wrap;html=1;arcSize=22;flipV=0;" vertex="1" parent="D_gutGCtXmGGeaFuFnzM-18">
          <mxGeometry width="170" height="40" as="geometry" />
        </mxCell>
        <mxCell id="D_gutGCtXmGGeaFuFnzM-7" value="fid1" style="shape=partialRectangle;whiteSpace=wrap;html=1;top=0;bottom=0;fillColor=none;" vertex="1" parent="D_gutGCtXmGGeaFuFnzM-18">
          <mxGeometry x="10" y="10" width="20" height="20" as="geometry" />
        </mxCell>
        <mxCell id="D_gutGCtXmGGeaFuFnzM-8" value="fid2" style="shape=partialRectangle;whiteSpace=wrap;html=1;top=0;bottom=0;fillColor=none;" vertex="1" parent="D_gutGCtXmGGeaFuFnzM-18">
          <mxGeometry x="40" y="10" width="20" height="20" as="geometry" />
        </mxCell>
        <mxCell id="D_gutGCtXmGGeaFuFnzM-9" value="fid3" style="shape=partialRectangle;whiteSpace=wrap;html=1;top=0;bottom=0;fillColor=none;" vertex="1" parent="D_gutGCtXmGGeaFuFnzM-18">
          <mxGeometry x="70" y="10" width="20" height="20" as="geometry" />
        </mxCell>
        <mxCell id="D_gutGCtXmGGeaFuFnzM-10" value="fid4" style="shape=partialRectangle;whiteSpace=wrap;html=1;top=0;bottom=0;fillColor=none;" vertex="1" parent="D_gutGCtXmGGeaFuFnzM-18">
          <mxGeometry x="100" y="10" width="20" height="20" as="geometry" />
        </mxCell>
        <mxCell id="D_gutGCtXmGGeaFuFnzM-11" value="fidn" style="shape=partialRectangle;whiteSpace=wrap;html=1;top=0;bottom=0;fillColor=none;" vertex="1" parent="D_gutGCtXmGGeaFuFnzM-18">
          <mxGeometry x="150" y="10" width="20" height="20" as="geometry" />
        </mxCell>
        <mxCell id="D_gutGCtXmGGeaFuFnzM-13" value="..." style="shape=partialRectangle;whiteSpace=wrap;html=1;top=0;bottom=0;fillColor=none;" vertex="1" parent="D_gutGCtXmGGeaFuFnzM-18">
          <mxGeometry x="130" y="10" width="10" height="20" as="geometry" />
        </mxCell>
        <mxCell id="D_gutGCtXmGGeaFuFnzM-19" value="" style="group" vertex="1" connectable="0" parent="D_gutGCtXmGGeaFuFnzM-54">
          <mxGeometry y="50" width="170" height="40" as="geometry" />
        </mxCell>
        <mxCell id="D_gutGCtXmGGeaFuFnzM-20" value="" style="rounded=1;whiteSpace=wrap;html=1;arcSize=22;flipV=0;" vertex="1" parent="D_gutGCtXmGGeaFuFnzM-19">
          <mxGeometry width="170" height="40" as="geometry" />
        </mxCell>
        <mxCell id="D_gutGCtXmGGeaFuFnzM-21" value="fid1" style="shape=partialRectangle;whiteSpace=wrap;html=1;top=0;bottom=0;fillColor=none;" vertex="1" parent="D_gutGCtXmGGeaFuFnzM-19">
          <mxGeometry x="10" y="10" width="20" height="20" as="geometry" />
        </mxCell>
        <mxCell id="D_gutGCtXmGGeaFuFnzM-22" value="fid2" style="shape=partialRectangle;whiteSpace=wrap;html=1;top=0;bottom=0;fillColor=none;" vertex="1" parent="D_gutGCtXmGGeaFuFnzM-19">
          <mxGeometry x="40" y="10" width="20" height="20" as="geometry" />
        </mxCell>
        <mxCell id="D_gutGCtXmGGeaFuFnzM-23" value="fid3" style="shape=partialRectangle;whiteSpace=wrap;html=1;top=0;bottom=0;fillColor=none;" vertex="1" parent="D_gutGCtXmGGeaFuFnzM-19">
          <mxGeometry x="70" y="10" width="20" height="20" as="geometry" />
        </mxCell>
        <mxCell id="D_gutGCtXmGGeaFuFnzM-24" value="fid4" style="shape=partialRectangle;whiteSpace=wrap;html=1;top=0;bottom=0;fillColor=none;" vertex="1" parent="D_gutGCtXmGGeaFuFnzM-19">
          <mxGeometry x="100" y="10" width="20" height="20" as="geometry" />
        </mxCell>
        <mxCell id="D_gutGCtXmGGeaFuFnzM-25" value="fidn" style="shape=partialRectangle;whiteSpace=wrap;html=1;top=0;bottom=0;fillColor=none;" vertex="1" parent="D_gutGCtXmGGeaFuFnzM-19">
          <mxGeometry x="150" y="10" width="20" height="20" as="geometry" />
        </mxCell>
        <mxCell id="D_gutGCtXmGGeaFuFnzM-26" value="..." style="shape=partialRectangle;whiteSpace=wrap;html=1;top=0;bottom=0;fillColor=none;" vertex="1" parent="D_gutGCtXmGGeaFuFnzM-19">
          <mxGeometry x="130" y="10" width="10" height="20" as="geometry" />
        </mxCell>
        <mxCell id="D_gutGCtXmGGeaFuFnzM-27" value="" style="group" vertex="1" connectable="0" parent="D_gutGCtXmGGeaFuFnzM-54">
          <mxGeometry y="100" width="170" height="40" as="geometry" />
        </mxCell>
        <mxCell id="D_gutGCtXmGGeaFuFnzM-28" value="" style="rounded=1;whiteSpace=wrap;html=1;arcSize=22;flipV=0;" vertex="1" parent="D_gutGCtXmGGeaFuFnzM-27">
          <mxGeometry width="170" height="40" as="geometry" />
        </mxCell>
        <mxCell id="D_gutGCtXmGGeaFuFnzM-29" value="fid1" style="shape=partialRectangle;whiteSpace=wrap;html=1;top=0;bottom=0;fillColor=none;" vertex="1" parent="D_gutGCtXmGGeaFuFnzM-27">
          <mxGeometry x="10" y="10" width="20" height="20" as="geometry" />
        </mxCell>
        <mxCell id="D_gutGCtXmGGeaFuFnzM-30" value="fid2" style="shape=partialRectangle;whiteSpace=wrap;html=1;top=0;bottom=0;fillColor=none;" vertex="1" parent="D_gutGCtXmGGeaFuFnzM-27">
          <mxGeometry x="40" y="10" width="20" height="20" as="geometry" />
        </mxCell>
        <mxCell id="D_gutGCtXmGGeaFuFnzM-31" value="fid3" style="shape=partialRectangle;whiteSpace=wrap;html=1;top=0;bottom=0;fillColor=none;" vertex="1" parent="D_gutGCtXmGGeaFuFnzM-27">
          <mxGeometry x="70" y="10" width="20" height="20" as="geometry" />
        </mxCell>
        <mxCell id="D_gutGCtXmGGeaFuFnzM-32" value="fid4" style="shape=partialRectangle;whiteSpace=wrap;html=1;top=0;bottom=0;fillColor=none;" vertex="1" parent="D_gutGCtXmGGeaFuFnzM-27">
          <mxGeometry x="100" y="10" width="20" height="20" as="geometry" />
        </mxCell>
        <mxCell id="D_gutGCtXmGGeaFuFnzM-33" value="fidn" style="shape=partialRectangle;whiteSpace=wrap;html=1;top=0;bottom=0;fillColor=none;" vertex="1" parent="D_gutGCtXmGGeaFuFnzM-27">
          <mxGeometry x="150" y="10" width="20" height="20" as="geometry" />
        </mxCell>
        <mxCell id="D_gutGCtXmGGeaFuFnzM-34" value="..." style="shape=partialRectangle;whiteSpace=wrap;html=1;top=0;bottom=0;fillColor=none;" vertex="1" parent="D_gutGCtXmGGeaFuFnzM-27">
          <mxGeometry x="130" y="10" width="10" height="20" as="geometry" />
        </mxCell>
        <mxCell id="D_gutGCtXmGGeaFuFnzM-35" value="" style="group" vertex="1" connectable="0" parent="D_gutGCtXmGGeaFuFnzM-54">
          <mxGeometry y="150" width="170" height="40" as="geometry" />
        </mxCell>
        <mxCell id="D_gutGCtXmGGeaFuFnzM-36" value="" style="rounded=1;whiteSpace=wrap;html=1;arcSize=22;flipV=0;" vertex="1" parent="D_gutGCtXmGGeaFuFnzM-35">
          <mxGeometry width="170" height="40" as="geometry" />
        </mxCell>
        <mxCell id="D_gutGCtXmGGeaFuFnzM-37" value="fid1" style="shape=partialRectangle;whiteSpace=wrap;html=1;top=0;bottom=0;fillColor=none;" vertex="1" parent="D_gutGCtXmGGeaFuFnzM-35">
          <mxGeometry x="10" y="10" width="20" height="20" as="geometry" />
        </mxCell>
        <mxCell id="D_gutGCtXmGGeaFuFnzM-38" value="fid2" style="shape=partialRectangle;whiteSpace=wrap;html=1;top=0;bottom=0;fillColor=none;" vertex="1" parent="D_gutGCtXmGGeaFuFnzM-35">
          <mxGeometry x="40" y="10" width="20" height="20" as="geometry" />
        </mxCell>
        <mxCell id="D_gutGCtXmGGeaFuFnzM-39" value="fid3" style="shape=partialRectangle;whiteSpace=wrap;html=1;top=0;bottom=0;fillColor=none;" vertex="1" parent="D_gutGCtXmGGeaFuFnzM-35">
          <mxGeometry x="70" y="10" width="20" height="20" as="geometry" />
        </mxCell>
        <mxCell id="D_gutGCtXmGGeaFuFnzM-40" value="fid4" style="shape=partialRectangle;whiteSpace=wrap;html=1;top=0;bottom=0;fillColor=none;" vertex="1" parent="D_gutGCtXmGGeaFuFnzM-35">
          <mxGeometry x="100" y="10" width="20" height="20" as="geometry" />
        </mxCell>
        <mxCell id="D_gutGCtXmGGeaFuFnzM-41" value="fidn" style="shape=partialRectangle;whiteSpace=wrap;html=1;top=0;bottom=0;fillColor=none;" vertex="1" parent="D_gutGCtXmGGeaFuFnzM-35">
          <mxGeometry x="150" y="10" width="20" height="20" as="geometry" />
        </mxCell>
        <mxCell id="D_gutGCtXmGGeaFuFnzM-42" value="..." style="shape=partialRectangle;whiteSpace=wrap;html=1;top=0;bottom=0;fillColor=none;" vertex="1" parent="D_gutGCtXmGGeaFuFnzM-35">
          <mxGeometry x="130" y="10" width="10" height="20" as="geometry" />
        </mxCell>
        <mxCell id="D_gutGCtXmGGeaFuFnzM-45" value="" style="group" vertex="1" connectable="0" parent="D_gutGCtXmGGeaFuFnzM-54">
          <mxGeometry y="200" width="170" height="40" as="geometry" />
        </mxCell>
        <mxCell id="D_gutGCtXmGGeaFuFnzM-46" value="" style="rounded=1;whiteSpace=wrap;html=1;arcSize=22;flipV=0;" vertex="1" parent="D_gutGCtXmGGeaFuFnzM-45">
          <mxGeometry width="170" height="40" as="geometry" />
        </mxCell>
        <mxCell id="D_gutGCtXmGGeaFuFnzM-47" value="fid1" style="shape=partialRectangle;whiteSpace=wrap;html=1;top=0;bottom=0;fillColor=none;" vertex="1" parent="D_gutGCtXmGGeaFuFnzM-45">
          <mxGeometry x="10" y="10" width="20" height="20" as="geometry" />
        </mxCell>
        <mxCell id="D_gutGCtXmGGeaFuFnzM-48" value="fid2" style="shape=partialRectangle;whiteSpace=wrap;html=1;top=0;bottom=0;fillColor=none;" vertex="1" parent="D_gutGCtXmGGeaFuFnzM-45">
          <mxGeometry x="40" y="10" width="20" height="20" as="geometry" />
        </mxCell>
        <mxCell id="D_gutGCtXmGGeaFuFnzM-49" value="fid3" style="shape=partialRectangle;whiteSpace=wrap;html=1;top=0;bottom=0;fillColor=none;" vertex="1" parent="D_gutGCtXmGGeaFuFnzM-45">
          <mxGeometry x="70" y="10" width="20" height="20" as="geometry" />
        </mxCell>
        <mxCell id="D_gutGCtXmGGeaFuFnzM-50" value="fid4" style="shape=partialRectangle;whiteSpace=wrap;html=1;top=0;bottom=0;fillColor=none;" vertex="1" parent="D_gutGCtXmGGeaFuFnzM-45">
          <mxGeometry x="100" y="10" width="20" height="20" as="geometry" />
        </mxCell>
        <mxCell id="D_gutGCtXmGGeaFuFnzM-51" value="fidn" style="shape=partialRectangle;whiteSpace=wrap;html=1;top=0;bottom=0;fillColor=none;" vertex="1" parent="D_gutGCtXmGGeaFuFnzM-45">
          <mxGeometry x="150" y="10" width="20" height="20" as="geometry" />
        </mxCell>
        <mxCell id="D_gutGCtXmGGeaFuFnzM-52" value="..." style="shape=partialRectangle;whiteSpace=wrap;html=1;top=0;bottom=0;fillColor=none;" vertex="1" parent="D_gutGCtXmGGeaFuFnzM-45">
          <mxGeometry x="130" y="10" width="10" height="20" as="geometry" />
        </mxCell>
        <mxCell id="D_gutGCtXmGGeaFuFnzM-62" value="" style="group" vertex="1" connectable="0" parent="D_gutGCtXmGGeaFuFnzM-116">
          <mxGeometry x="210" y="20" width="160" height="40" as="geometry" />
        </mxCell>
        <mxCell id="D_gutGCtXmGGeaFuFnzM-56" value="" style="rounded=1;whiteSpace=wrap;html=1;" vertex="1" parent="D_gutGCtXmGGeaFuFnzM-62">
          <mxGeometry width="160" height="40" as="geometry" />
        </mxCell>
        <mxCell id="D_gutGCtXmGGeaFuFnzM-59" value="fid101" style="shape=partialRectangle;whiteSpace=wrap;html=1;top=0;bottom=0;fillColor=none;" vertex="1" parent="D_gutGCtXmGGeaFuFnzM-62">
          <mxGeometry x="10" y="10" width="40" height="20" as="geometry" />
        </mxCell>
        <mxCell id="D_gutGCtXmGGeaFuFnzM-60" value="fid102" style="shape=partialRectangle;whiteSpace=wrap;html=1;top=0;bottom=0;fillColor=none;" vertex="1" parent="D_gutGCtXmGGeaFuFnzM-62">
          <mxGeometry x="54" y="10" width="40" height="20" as="geometry" />
        </mxCell>
        <mxCell id="D_gutGCtXmGGeaFuFnzM-61" value="fid103" style="shape=partialRectangle;whiteSpace=wrap;html=1;top=0;bottom=0;fillColor=none;" vertex="1" parent="D_gutGCtXmGGeaFuFnzM-62">
          <mxGeometry x="100" y="10" width="40" height="20" as="geometry" />
        </mxCell>
        <mxCell id="D_gutGCtXmGGeaFuFnzM-68" value="" style="group" vertex="1" connectable="0" parent="D_gutGCtXmGGeaFuFnzM-116">
          <mxGeometry x="210" y="120" width="160" height="40" as="geometry" />
        </mxCell>
        <mxCell id="D_gutGCtXmGGeaFuFnzM-69" value="" style="rounded=1;whiteSpace=wrap;html=1;" vertex="1" parent="D_gutGCtXmGGeaFuFnzM-68">
          <mxGeometry width="160" height="40" as="geometry" />
        </mxCell>
        <mxCell id="D_gutGCtXmGGeaFuFnzM-70" value="fid101" style="shape=partialRectangle;whiteSpace=wrap;html=1;top=0;bottom=0;fillColor=none;" vertex="1" parent="D_gutGCtXmGGeaFuFnzM-68">
          <mxGeometry x="10" y="10" width="40" height="20" as="geometry" />
        </mxCell>
        <mxCell id="D_gutGCtXmGGeaFuFnzM-71" value="fid102" style="shape=partialRectangle;whiteSpace=wrap;html=1;top=0;bottom=0;fillColor=none;" vertex="1" parent="D_gutGCtXmGGeaFuFnzM-68">
          <mxGeometry x="54" y="10" width="40" height="20" as="geometry" />
        </mxCell>
        <mxCell id="D_gutGCtXmGGeaFuFnzM-72" value="fid103" style="shape=partialRectangle;whiteSpace=wrap;html=1;top=0;bottom=0;fillColor=none;" vertex="1" parent="D_gutGCtXmGGeaFuFnzM-68">
          <mxGeometry x="100" y="10" width="40" height="20" as="geometry" />
        </mxCell>
        <mxCell id="D_gutGCtXmGGeaFuFnzM-73" value="" style="group" vertex="1" connectable="0" parent="D_gutGCtXmGGeaFuFnzM-116">
          <mxGeometry x="210" y="170" width="160" height="40" as="geometry" />
        </mxCell>
        <mxCell id="D_gutGCtXmGGeaFuFnzM-74" value="" style="rounded=1;whiteSpace=wrap;html=1;" vertex="1" parent="D_gutGCtXmGGeaFuFnzM-73">
          <mxGeometry width="160" height="40" as="geometry" />
        </mxCell>
        <mxCell id="D_gutGCtXmGGeaFuFnzM-75" value="fid101" style="shape=partialRectangle;whiteSpace=wrap;html=1;top=0;bottom=0;fillColor=none;" vertex="1" parent="D_gutGCtXmGGeaFuFnzM-73">
          <mxGeometry x="10" y="10" width="40" height="20" as="geometry" />
        </mxCell>
        <mxCell id="D_gutGCtXmGGeaFuFnzM-76" value="fid102" style="shape=partialRectangle;whiteSpace=wrap;html=1;top=0;bottom=0;fillColor=none;" vertex="1" parent="D_gutGCtXmGGeaFuFnzM-73">
          <mxGeometry x="54" y="10" width="40" height="20" as="geometry" />
        </mxCell>
        <mxCell id="D_gutGCtXmGGeaFuFnzM-77" value="fid103" style="shape=partialRectangle;whiteSpace=wrap;html=1;top=0;bottom=0;fillColor=none;" vertex="1" parent="D_gutGCtXmGGeaFuFnzM-73">
          <mxGeometry x="100" y="10" width="40" height="20" as="geometry" />
        </mxCell>
        <mxCell id="D_gutGCtXmGGeaFuFnzM-78" value="" style="group" vertex="1" connectable="0" parent="D_gutGCtXmGGeaFuFnzM-116">
          <mxGeometry x="210" y="220" width="160" height="50" as="geometry" />
        </mxCell>
        <mxCell id="D_gutGCtXmGGeaFuFnzM-79" value="" style="rounded=1;whiteSpace=wrap;html=1;" vertex="1" parent="D_gutGCtXmGGeaFuFnzM-78">
          <mxGeometry width="160" height="40" as="geometry" />
        </mxCell>
        <mxCell id="D_gutGCtXmGGeaFuFnzM-80" value="fid101" style="shape=partialRectangle;whiteSpace=wrap;html=1;top=0;bottom=0;fillColor=none;" vertex="1" parent="D_gutGCtXmGGeaFuFnzM-78">
          <mxGeometry x="10" y="10" width="40" height="20" as="geometry" />
        </mxCell>
        <mxCell id="D_gutGCtXmGGeaFuFnzM-81" value="fid102" style="shape=partialRectangle;whiteSpace=wrap;html=1;top=0;bottom=0;fillColor=none;" vertex="1" parent="D_gutGCtXmGGeaFuFnzM-78">
          <mxGeometry x="54" y="10" width="40" height="20" as="geometry" />
        </mxCell>
        <mxCell id="D_gutGCtXmGGeaFuFnzM-82" value="fid103" style="shape=partialRectangle;whiteSpace=wrap;html=1;top=0;bottom=0;fillColor=none;" vertex="1" parent="D_gutGCtXmGGeaFuFnzM-78">
          <mxGeometry x="100" y="10" width="40" height="20" as="geometry" />
        </mxCell>
        <mxCell id="D_gutGCtXmGGeaFuFnzM-63" value="" style="group" vertex="1" connectable="0" parent="D_gutGCtXmGGeaFuFnzM-78">
          <mxGeometry y="-150" width="160" height="40" as="geometry" />
        </mxCell>
        <mxCell id="D_gutGCtXmGGeaFuFnzM-64" value="" style="rounded=1;whiteSpace=wrap;html=1;" vertex="1" parent="D_gutGCtXmGGeaFuFnzM-63">
          <mxGeometry width="160" height="40" as="geometry" />
        </mxCell>
        <mxCell id="D_gutGCtXmGGeaFuFnzM-65" value="fid101" style="shape=partialRectangle;whiteSpace=wrap;html=1;top=0;bottom=0;fillColor=none;" vertex="1" parent="D_gutGCtXmGGeaFuFnzM-63">
          <mxGeometry x="10" y="10" width="40" height="20" as="geometry" />
        </mxCell>
        <mxCell id="D_gutGCtXmGGeaFuFnzM-66" value="fid102" style="shape=partialRectangle;whiteSpace=wrap;html=1;top=0;bottom=0;fillColor=none;" vertex="1" parent="D_gutGCtXmGGeaFuFnzM-63">
          <mxGeometry x="54" y="10" width="40" height="20" as="geometry" />
        </mxCell>
        <mxCell id="D_gutGCtXmGGeaFuFnzM-67" value="fid103" style="shape=partialRectangle;whiteSpace=wrap;html=1;top=0;bottom=0;fillColor=none;" vertex="1" parent="D_gutGCtXmGGeaFuFnzM-63">
          <mxGeometry x="100" y="10" width="40" height="20" as="geometry" />
        </mxCell>
        <mxCell id="D_gutGCtXmGGeaFuFnzM-87" value="" style="rounded=1;whiteSpace=wrap;html=1;" vertex="1" parent="D_gutGCtXmGGeaFuFnzM-116">
          <mxGeometry x="400" y="20" width="170" height="40" as="geometry" />
        </mxCell>
        <mxCell id="D_gutGCtXmGGeaFuFnzM-88" value="" style="rounded=1;whiteSpace=wrap;html=1;" vertex="1" parent="D_gutGCtXmGGeaFuFnzM-116">
          <mxGeometry x="400" y="70" width="270" height="40" as="geometry" />
        </mxCell>
        <mxCell id="D_gutGCtXmGGeaFuFnzM-89" value="" style="rounded=1;whiteSpace=wrap;html=1;" vertex="1" parent="D_gutGCtXmGGeaFuFnzM-116">
          <mxGeometry x="400" y="120" width="230" height="40" as="geometry" />
        </mxCell>
        <mxCell id="D_gutGCtXmGGeaFuFnzM-90" value="" style="rounded=1;whiteSpace=wrap;html=1;" vertex="1" parent="D_gutGCtXmGGeaFuFnzM-116">
          <mxGeometry x="400" y="170" width="250" height="40" as="geometry" />
        </mxCell>
        <mxCell id="D_gutGCtXmGGeaFuFnzM-91" value="" style="rounded=1;whiteSpace=wrap;html=1;" vertex="1" parent="D_gutGCtXmGGeaFuFnzM-116">
          <mxGeometry x="400" y="220" width="200" height="40" as="geometry" />
        </mxCell>
        <mxCell id="D_gutGCtXmGGeaFuFnzM-92" value="fid201" style="shape=partialRectangle;whiteSpace=wrap;html=1;top=0;bottom=0;fillColor=none;" vertex="1" parent="D_gutGCtXmGGeaFuFnzM-116">
          <mxGeometry x="410" y="30" width="40" height="20" as="geometry" />
        </mxCell>
        <mxCell id="D_gutGCtXmGGeaFuFnzM-93" value="fid203" style="shape=partialRectangle;whiteSpace=wrap;html=1;top=0;bottom=0;fillColor=none;" vertex="1" parent="D_gutGCtXmGGeaFuFnzM-116">
          <mxGeometry x="460" y="30" width="40" height="20" as="geometry" />
        </mxCell>
        <mxCell id="D_gutGCtXmGGeaFuFnzM-94" value="fid204" style="shape=partialRectangle;whiteSpace=wrap;html=1;top=0;bottom=0;fillColor=none;" vertex="1" parent="D_gutGCtXmGGeaFuFnzM-116">
          <mxGeometry x="510" y="30" width="40" height="20" as="geometry" />
        </mxCell>
        <mxCell id="D_gutGCtXmGGeaFuFnzM-95" value="fid201" style="shape=partialRectangle;whiteSpace=wrap;html=1;top=0;bottom=0;fillColor=none;" vertex="1" parent="D_gutGCtXmGGeaFuFnzM-116">
          <mxGeometry x="410" y="80" width="40" height="20" as="geometry" />
        </mxCell>
        <mxCell id="D_gutGCtXmGGeaFuFnzM-96" value="fid201" style="shape=partialRectangle;whiteSpace=wrap;html=1;top=0;bottom=0;fillColor=none;" vertex="1" parent="D_gutGCtXmGGeaFuFnzM-116">
          <mxGeometry x="410" y="130" width="40" height="20" as="geometry" />
        </mxCell>
        <mxCell id="D_gutGCtXmGGeaFuFnzM-97" value="fid201" style="shape=partialRectangle;whiteSpace=wrap;html=1;top=0;bottom=0;fillColor=none;" vertex="1" parent="D_gutGCtXmGGeaFuFnzM-116">
          <mxGeometry x="410" y="180" width="40" height="20" as="geometry" />
        </mxCell>
        <mxCell id="D_gutGCtXmGGeaFuFnzM-98" value="fid201" style="shape=partialRectangle;whiteSpace=wrap;html=1;top=0;bottom=0;fillColor=none;" vertex="1" parent="D_gutGCtXmGGeaFuFnzM-116">
          <mxGeometry x="410" y="230" width="40" height="20" as="geometry" />
        </mxCell>
        <mxCell id="D_gutGCtXmGGeaFuFnzM-99" value="fid204" style="shape=partialRectangle;whiteSpace=wrap;html=1;top=0;bottom=0;fillColor=none;" vertex="1" parent="D_gutGCtXmGGeaFuFnzM-116">
          <mxGeometry x="460" y="80" width="40" height="20" as="geometry" />
        </mxCell>
        <mxCell id="D_gutGCtXmGGeaFuFnzM-100" value="fid206" style="shape=partialRectangle;whiteSpace=wrap;html=1;top=0;bottom=0;fillColor=none;" vertex="1" parent="D_gutGCtXmGGeaFuFnzM-116">
          <mxGeometry x="510" y="80" width="40" height="20" as="geometry" />
        </mxCell>
        <mxCell id="D_gutGCtXmGGeaFuFnzM-101" value="fid207" style="shape=partialRectangle;whiteSpace=wrap;html=1;top=0;bottom=0;fillColor=none;" vertex="1" parent="D_gutGCtXmGGeaFuFnzM-116">
          <mxGeometry x="560" y="80" width="40" height="20" as="geometry" />
        </mxCell>
        <mxCell id="D_gutGCtXmGGeaFuFnzM-102" value="fid209" style="shape=partialRectangle;whiteSpace=wrap;html=1;top=0;bottom=0;fillColor=none;" vertex="1" parent="D_gutGCtXmGGeaFuFnzM-116">
          <mxGeometry x="610" y="80" width="40" height="20" as="geometry" />
        </mxCell>
        <mxCell id="D_gutGCtXmGGeaFuFnzM-103" value="fid205" style="shape=partialRectangle;whiteSpace=wrap;html=1;top=0;bottom=0;fillColor=none;" vertex="1" parent="D_gutGCtXmGGeaFuFnzM-116">
          <mxGeometry x="460" y="130" width="40" height="20" as="geometry" />
        </mxCell>
        <mxCell id="D_gutGCtXmGGeaFuFnzM-104" value="fid206" style="shape=partialRectangle;whiteSpace=wrap;html=1;top=0;bottom=0;fillColor=none;" vertex="1" parent="D_gutGCtXmGGeaFuFnzM-116">
          <mxGeometry x="510" y="130" width="40" height="20" as="geometry" />
        </mxCell>
        <mxCell id="D_gutGCtXmGGeaFuFnzM-105" value="fid208" style="shape=partialRectangle;whiteSpace=wrap;html=1;top=0;bottom=0;fillColor=none;" vertex="1" parent="D_gutGCtXmGGeaFuFnzM-116">
          <mxGeometry x="560" y="130" width="40" height="20" as="geometry" />
        </mxCell>
        <mxCell id="D_gutGCtXmGGeaFuFnzM-109" value="fid204" style="shape=partialRectangle;whiteSpace=wrap;html=1;top=0;bottom=0;fillColor=none;" vertex="1" parent="D_gutGCtXmGGeaFuFnzM-116">
          <mxGeometry x="460" y="180" width="40" height="20" as="geometry" />
        </mxCell>
        <mxCell id="D_gutGCtXmGGeaFuFnzM-110" value="fid205" style="shape=partialRectangle;whiteSpace=wrap;html=1;top=0;bottom=0;fillColor=none;" vertex="1" parent="D_gutGCtXmGGeaFuFnzM-116">
          <mxGeometry x="510" y="180" width="40" height="20" as="geometry" />
        </mxCell>
        <mxCell id="D_gutGCtXmGGeaFuFnzM-111" value="fid207" style="shape=partialRectangle;whiteSpace=wrap;html=1;top=0;bottom=0;fillColor=none;" vertex="1" parent="D_gutGCtXmGGeaFuFnzM-116">
          <mxGeometry x="560" y="180" width="40" height="20" as="geometry" />
        </mxCell>
        <mxCell id="D_gutGCtXmGGeaFuFnzM-112" value="fid202" style="shape=partialRectangle;whiteSpace=wrap;html=1;top=0;bottom=0;fillColor=none;" vertex="1" parent="D_gutGCtXmGGeaFuFnzM-116">
          <mxGeometry x="460" y="230" width="40" height="20" as="geometry" />
        </mxCell>
        <mxCell id="D_gutGCtXmGGeaFuFnzM-113" value="fid204" style="shape=partialRectangle;whiteSpace=wrap;html=1;top=0;bottom=0;fillColor=none;" vertex="1" parent="D_gutGCtXmGGeaFuFnzM-116">
          <mxGeometry x="510" y="230" width="40" height="20" as="geometry" />
        </mxCell>
        <mxCell id="D_gutGCtXmGGeaFuFnzM-114" value="fid209" style="shape=partialRectangle;whiteSpace=wrap;html=1;top=0;bottom=0;fillColor=none;" vertex="1" parent="D_gutGCtXmGGeaFuFnzM-116">
          <mxGeometry x="560" y="230" width="40" height="20" as="geometry" />
        </mxCell>
        <mxCell id="D_gutGCtXmGGeaFuFnzM-115" value="fid210" style="shape=partialRectangle;whiteSpace=wrap;html=1;top=0;bottom=0;fillColor=none;" vertex="1" parent="D_gutGCtXmGGeaFuFnzM-116">
          <mxGeometry x="610" y="180" width="40" height="20" as="geometry" />
        </mxCell>
        <mxCell id="D_gutGCtXmGGeaFuFnzM-117" value="用户特征" style="text;html=1;align=center;verticalAlign=middle;resizable=0;points=[];autosize=1;strokeColor=none;fillColor=none;" vertex="1" parent="1">
          <mxGeometry x="135" y="475" width="70" height="30" as="geometry" />
        </mxCell>
        <mxCell id="D_gutGCtXmGGeaFuFnzM-118" value="上下文特征" style="text;html=1;align=center;verticalAlign=middle;resizable=0;points=[];autosize=1;strokeColor=none;fillColor=none;" vertex="1" parent="1">
          <mxGeometry x="335" y="475" width="80" height="30" as="geometry" />
        </mxCell>
        <mxCell id="D_gutGCtXmGGeaFuFnzM-119" value="物料特征" style="text;html=1;align=center;verticalAlign=middle;resizable=0;points=[];autosize=1;strokeColor=none;fillColor=none;" vertex="1" parent="1">
          <mxGeometry x="535" y="475" width="70" height="30" as="geometry" />
        </mxCell>
        <mxCell id="D_gutGCtXmGGeaFuFnzM-121" value="第一条样本" style="text;html=1;strokeColor=none;fillColor=none;align=center;verticalAlign=middle;whiteSpace=wrap;rounded=0;" vertex="1" parent="1">
          <mxGeometry x="10" y="205" width="70" height="30" as="geometry" />
        </mxCell>
        <mxCell id="D_gutGCtXmGGeaFuFnzM-122" value="第二条样本" style="text;html=1;strokeColor=none;fillColor=none;align=center;verticalAlign=middle;whiteSpace=wrap;rounded=0;" vertex="1" parent="1">
          <mxGeometry x="10" y="256" width="70" height="30" as="geometry" />
        </mxCell>
        <mxCell id="D_gutGCtXmGGeaFuFnzM-123" value="第三条样本" style="text;html=1;strokeColor=none;fillColor=none;align=center;verticalAlign=middle;whiteSpace=wrap;rounded=0;" vertex="1" parent="1">
          <mxGeometry x="10" y="308" width="70" height="30" as="geometry" />
        </mxCell>
        <mxCell id="D_gutGCtXmGGeaFuFnzM-124" value="第四条样本" style="text;html=1;strokeColor=none;fillColor=none;align=center;verticalAlign=middle;whiteSpace=wrap;rounded=0;" vertex="1" parent="1">
          <mxGeometry x="10" y="359" width="70" height="30" as="geometry" />
        </mxCell>
        <mxCell id="D_gutGCtXmGGeaFuFnzM-125" value="第五条样本" style="text;html=1;strokeColor=none;fillColor=none;align=center;verticalAlign=middle;whiteSpace=wrap;rounded=0;" vertex="1" parent="1">
          <mxGeometry x="10" y="410" width="70" height="30" as="geometry" />
        </mxCell>
      </root>
    </mxGraphModel>
  </diagram>
</mxfile>
